<?xml version="1.0" encoding="UTF-8" standalone="no"?>
<svg width="512" height="512" viewBox="0 0 512 512" fill="none" xmlns="http://www.w3.org/2000/svg">
  <defs>
    <linearGradient id="grad_main" x1="0%" y1="0%" x2="100%" y2="100%">
      <stop offset="0%" stop-color="#6366F1" />
      <stop offset="100%" stop-color="#06B6D4" />
    </linearGradient>
    <filter id="glow" x="-20%" y="-20%" width="140%" height="140%">
      <feGaussianBlur stdDeviation="15" result="blur" />
      <feComposite in="SourceGraphic" in2="blur" operator="over" />
    </filter>
  </defs>
  <g transform="translate(96, 96)">
    <g opacity="0.8">
      <line x1="160" y1="60" x2="160" y2="108" stroke="url(#grad_main)" stroke-width="12" stroke-linecap="round"/>
      <line x1="248" y1="96" x2="200" y2="128" stroke="url(#grad_main)" stroke-width="12" stroke-linecap="round"/>
      <line x1="268" y1="184" x2="208" y2="168" stroke="url(#grad_main)" stroke-width="12" stroke-linecap="round"/>
      <line x1="224" y1="264" x2="192" y2="200" stroke="url(#grad_main)" stroke-width="12" stroke-linecap="round"/>
      <line x1="96" y1="264" x2="128" y2="200" stroke="url(#grad_main)" stroke-width="12" stroke-linecap="round"/>
      <line x1="52" y1="184" x2="112" y2="168" stroke="url(#grad_main)" stroke-width="12" stroke-linecap="round"/>
      <line x1="72" y1="96" x2="120" y2="128" stroke="url(#grad_main)" stroke-width="12" stroke-linecap="round"/>
    </g>
    <circle cx="160" cy="32" r="28" fill="#6366F1" />
    <circle cx="272" cy="80" r="28" fill="#06B6D4" />
    <circle cx="296" cy="192" r="28" fill="#6366F1" />
    <circle cx="240" cy="288" r="28" fill="#06B6D4" />
    <circle cx="80" cy="288" r="28" fill="#6366F1" />
    <circle cx="24" cy="192" r="28" fill="#06B6D4" />
    <circle cx="48" cy="80" r="28" fill="#6366F1" />
    <circle cx="160" cy="160" r="56" fill="url(#grad_main)" filter="url(#glow)" />
    <circle cx="160" cy="160" r="24" fill="#0F172A" />
  </g>
</svg>